<svg width="27" height="27" viewBox="0 0 27 27" fill="none" xmlns="http://www.w3.org/2000/svg">
<path d="M13.5 3C11.486 3 9.5545 3.80005 8.13039 5.22416C6.70629 6.64826 5.90623 8.57976 5.90623 10.5938V14.6454L4.27948 18.7191C4.22853 18.847 4.20967 18.9855 4.22454 19.1224C4.23941 19.2593 4.28756 19.3904 4.36478 19.5044C4.44201 19.6185 4.54597 19.7118 4.66759 19.7764C4.7892 19.841 4.92478 19.8749 5.06248 19.875H10.125C10.125 21.7448 11.6302 23.25 13.5 23.25C15.3697 23.25 16.875 21.7448 16.875 19.875H21.9375C22.0752 19.8749 22.2108 19.841 22.3324 19.7764C22.454 19.7118 22.558 19.6185 22.6352 19.5044C22.7124 19.3904 22.7606 19.2593 22.7754 19.1224C22.7903 18.9855 22.7714 18.847 22.7205 18.7191L21.0937 14.6437V10.5938C21.0937 8.57976 20.2937 6.64826 18.8696 5.22416C17.4455 3.80005 15.514 3 13.5 3ZM15.1875 19.875C15.1875 20.8132 14.4382 21.5625 13.5 21.5625C12.5617 21.5625 11.8125 20.8132 11.8125 19.875H15.1875ZM7.59373 10.5938C7.59373 9.02732 8.216 7.52504 9.32364 6.4174C10.4313 5.30976 11.9335 4.6875 13.5 4.6875C15.0664 4.6875 16.5687 5.30976 17.6763 6.4174C18.784 7.52504 19.4062 9.02732 19.4062 10.5938V14.8091C19.4065 14.9161 19.4271 15.022 19.467 15.1213L20.6921 18.1875H6.30786L7.53298 15.1213C7.57284 15.022 7.59346 14.9161 7.59373 14.8091V10.5938Z" fill="#545454"/>
</svg>
