<svg width="23" height="23" viewBox="0 0 23 23" fill="none" xmlns="http://www.w3.org/2000/svg">
<path fill-rule="evenodd" clip-rule="evenodd" d="M17.5557 13.8316C18.7508 12.291 19.314 10.3529 19.1308 8.41173C18.9476 6.47056 18.0317 4.67209 16.5696 3.3822C15.1074 2.09231 13.2088 1.4079 11.2599 1.46821C9.31103 1.52852 7.45834 2.32901 6.07873 3.70683C4.69792 5.08561 3.89481 6.93902 3.83307 8.88937C3.77132 10.8397 4.45558 12.7402 5.74641 14.2036C7.03724 15.6669 8.83748 16.583 10.7803 16.7652C12.7231 16.9473 14.6622 16.3818 16.2026 15.1838L16.2438 15.227L20.309 19.2932C20.3981 19.3822 20.5038 19.4528 20.6201 19.501C20.7364 19.5492 20.8611 19.574 20.987 19.574C21.113 19.574 21.2376 19.5492 21.354 19.501C21.4703 19.4528 21.576 19.3822 21.6651 19.2932C21.7541 19.2041 21.8247 19.0984 21.8729 18.9821C21.9211 18.8658 21.9459 18.7411 21.9459 18.6151C21.9459 18.4892 21.9211 18.3645 21.8729 18.2482C21.8247 18.1319 21.7541 18.0262 21.6651 17.9371L17.5989 13.8719C17.5849 13.8581 17.5705 13.8446 17.5557 13.8316ZM15.5662 5.06287C16.1073 5.59521 16.5376 6.2294 16.8324 6.92888C17.1271 7.62835 17.2805 8.37927 17.2836 9.1383C17.2867 9.89734 17.1394 10.6495 16.8504 11.3513C16.5613 12.0532 16.1362 12.6909 15.5995 13.2276C15.0628 13.7643 14.4251 14.1894 13.7232 14.4785C13.0214 14.7675 12.2692 14.9148 11.5102 14.9117C10.7512 14.9086 10.0003 14.7552 9.30078 14.4605C8.6013 14.1657 7.96711 13.7354 7.43477 13.1943C6.37094 12.113 5.77748 10.6552 5.78366 9.1383C5.78984 7.62143 6.39515 6.16845 7.46775 5.09585C8.54035 4.02325 9.99333 3.41794 11.5102 3.41176C13.0271 3.40558 14.4849 3.99905 15.5662 5.06287Z" fill="#6A6969"/>
</svg>
